<?xml version="1.0" standalone="no"?>
<!DOCTYPE svg PUBLIC "-//W3C//DTD SVG 20010904//EN"
 "http://www.w3.org/TR/2001/REC-SVG-20010904/DTD/svg10.dtd">
<svg version="1.0" xmlns="http://www.w3.org/2000/svg"
 width="5001.000000pt" height="5001.000000pt" viewBox="0 0 5001.000000 5001.000000"
 preserveAspectRatio="xMidYMid meet">

<g transform="translate(0.000000,5001.000000) scale(0.100000,-0.100000)"
fill="#000000" stroke="none">
<path d="M13004 49989 c-2646 -42 -4146 -235 -5609 -723 -513 -172 -872 -319
-1350 -556 -1019 -505 -1889 -1124 -2699 -1920 -1405 -1382 -2367 -3079 -2851
-5030 -265 -1069 -399 -2194 -455 -3825 -27 -788 -30 -1806 -30 -11832 0
-10426 0 -10433 20 -10433 13 0 20 7 20 20 0 17 7 20 40 20 33 0 40 3 40 20 0
15 7 20 25 20 18 0 25 5 25 20 0 17 7 20 40 20 36 0 40 3 40 25 0 18 5 25 20
25 13 0 20 7 20 20 0 17 7 20 40 20 33 0 40 3 40 20 0 17 7 20 45 20 38 0 45
3 45 20 0 13 7 20 20 20 13 0 20 7 20 20 0 17 7 20 40 20 33 0 40 3 40 20 0
13 7 20 20 20 15 0 20 7 20 25 0 23 4 25 45 25 38 0 45 3 45 20 0 17 7 20 40
20 33 0 40 3 40 20 0 13 7 20 20 20 13 0 20 7 20 20 0 17 7 20 45 20 38 0 45
3 45 20 0 17 7 20 40 20 33 0 40 3 40 20 0 13 7 20 20 20 15 0 20 7 20 25 0
23 4 25 40 25 33 0 40 3 40 20 0 17 7 20 45 20 38 0 45 3 45 20 0 13 7 20 20
20 13 0 20 7 20 20 0 17 7 20 40 20 33 0 40 3 40 20 0 17 7 20 45 20 38 0 45
3 45 20 0 17 7 20 40 20 36 0 40 3 40 25 0 23 4 25 40 25 33 0 40 3 40 20 0
13 7 20 20 20 13 0 20 7 20 20 0 17 7 20 45 20 38 0 45 3 45 20 0 17 7 20 40
20 33 0 40 3 40 20 0 17 7 20 40 20 33 0 40 3 40 20 0 17 7 20 45 20 41 0 45
2 45 25 0 23 4 25 40 25 33 0 40 3 40 20 0 17 7 20 40 20 33 0 40 3 40 20 0
15 7 20 25 20 18 0 25 5 25 20 0 17 7 20 40 20 33 0 40 3 40 20 0 17 7 20 40
20 33 0 40 3 40 20 0 17 7 20 45 20 41 0 45 2 45 25 0 23 4 25 40 25 33 0 40
3 40 20 0 17 7 20 40 20 33 0 40 3 40 20 0 17 7 20 45 20 38 0 45 3 45 20 0
17 7 20 40 20 33 0 40 3 40 20 0 17 7 20 40 20 33 0 40 3 40 20 0 17 7 20 45
20 41 0 45 2 45 25 0 24 3 25 60 25 53 0 60 2 60 20 0 17 7 20 40 20 33 0 40
3 40 20 0 13 7 20 20 20 13 0 20 7 20 20 0 13 7 20 20 20 15 0 20 7 20 25 0
18 5 25 19 25 10 0 21 9 24 20 3 12 14 20 26 20 14 0 21 6 21 20 0 13 7 20 20
20 15 0 20 -7 20 -25 0 -18 5 -25 20 -25 15 0 20 7 20 25 0 18 5 25 20 25 13
0 20 7 20 20 0 13 -7 20 -20 20 -13 0 -20 7 -20 20 0 15 7 20 25 20 18 0 25 5
25 20 0 17 7 20 40 20 33 0 40 3 40 20 0 17 7 20 40 20 33 0 40 3 40 20 0 18
7 20 65 20 63 0 65 1 65 25 0 23 4 25 40 25 33 0 40 3 40 20 0 17 7 20 40 20
33 0 40 3 40 20 0 18 7 20 65 20 58 0 65 2 65 20 0 17 7 20 40 20 33 0 40 3
40 20 0 17 7 20 45 20 38 0 45 3 45 20 0 18 7 20 60 20 57 0 60 1 60 25 0 23
4 25 40 25 33 0 40 -3 40 -20 0 -13 -7 -20 -20 -20 -13 0 -20 -7 -20 -20 0
-13 -7 -20 -20 -20 -13 0 -20 -7 -20 -20 0 -15 -7 -20 -25 -20 -20 0 -25 -5
-25 -25 0 -18 -5 -25 -20 -25 -13 0 -20 -7 -20 -20 0 -15 7 -20 25 -20 18 0
25 5 25 20 0 18 7 20 60 20 53 0 60 2 60 20 0 17 7 20 45 20 38 0 45 3 45 20
0 13 7 20 20 20 18 0 20 7 20 59 0 54 2 60 23 64 l22 4 -22 2 c-16 1 -23 7
-23 21 0 18 7 20 60 20 l60 0 0 -45 c0 -38 -3 -45 -20 -45 -13 0 -20 -7 -20
-20 0 -17 7 -20 45 -20 41 0 45 2 45 25 0 24 3 25 60 25 53 0 60 2 60 20 0 18
7 20 65 20 58 0 65 2 65 20 0 17 7 20 40 20 33 0 40 3 40 20 0 18 7 20 60 20
53 0 60 2 60 20 0 18 7 20 65 20 58 0 65 2 65 20 0 18 7 20 60 20 57 0 60 1
60 25 0 24 2 25 65 25 58 0 65 2 65 20 0 18 7 20 60 20 53 0 60 2 60 20 0 13
7 20 20 20 15 0 20 7 20 25 0 18 5 25 20 25 13 0 20 7 20 20 0 13 7 20 20 20
13 0 20 7 20 20 0 15 7 20 25 20 18 0 25 5 25 20 0 13 7 20 20 20 13 0 20 7
20 20 0 17 7 20 45 20 38 0 45 3 45 20 0 18 7 20 60 20 53 0 60 2 60 20 0 18
7 20 65 20 58 0 65 2 65 20 0 18 7 20 60 20 45 0 60 -3 60 -14 0 -8 -10 -16
-22 -18 -15 -2 -24 -11 -26 -26 -2 -14 -10 -22 -23 -22 -12 0 -19 -7 -19 -20
0 -13 -7 -20 -20 -20 -13 0 -20 -7 -20 -20 0 -17 7 -20 45 -20 38 0 45 3 45
20 0 18 7 20 85 20 78 0 85 2 85 20 0 18 7 20 60 20 53 0 60 2 60 20 0 17 7
20 40 20 36 0 40 3 40 25 0 18 5 25 20 25 13 0 20 7 20 20 0 13 7 20 19 20 13
0 20 10 25 31 3 18 2 181 -4 363 -28 907 -32 1553 -35 5241 -4 4669 5 5803 55
6975 5 129 14 357 20 505 6 149 15 349 20 445 5 96 14 270 20 385 79 1584 338
2935 795 4143 440 1167 975 2063 1761 2949 190 216 611 637 827 827 886 786
1783 1322 2949 1761 1143 432 2384 681 3883 780 423 27 1573 76 2260 95 919
26 1738 32 5060 37 4901 8 6040 -6 8055 -97 1037 -47 1734 -119 2478 -256
1522 -279 2914 -820 4007 -1558 508 -343 904 -674 1396 -1165 394 -395 662
-701 943 -1081 951 -1281 1596 -2950 1866 -4828 95 -661 137 -1162 180 -2117
82 -1842 92 -2629 92 -7230 0 -4606 -10 -5392 -92 -7230 -53 -1177 -123 -1874
-266 -2645 -283 -1530 -836 -2933 -1592 -4040 -489 -717 -1206 -1487 -1912
-2056 -775 -623 -1593 -1082 -2605 -1461 -715 -268 -1463 -465 -2257 -594
-142 -23 -198 -36 -198 -46 0 -9 13 -13 40 -13 33 0 40 -3 40 -20 0 -15 7 -20
25 -20 20 0 25 -5 25 -25 0 -18 5 -25 20 -25 11 0 20 -7 20 -15 0 -8 -9 -15
-20 -15 -13 0 -20 -7 -20 -20 0 -13 7 -20 20 -20 11 0 20 7 20 15 0 8 9 15 20
15 13 0 20 -7 20 -20 0 -13 7 -20 19 -20 15 0 21 -10 26 -40 5 -30 11 -40 26
-40 16 0 19 -7 19 -40 0 -33 3 -40 20 -40 17 0 20 -7 20 -45 0 -38 3 -45 20
-45 13 0 20 -7 20 -20 0 -13 7 -20 20 -20 13 0 20 -7 20 -20 0 -13 7 -20 20
-20 13 0 20 -7 20 -20 0 -13 7 -20 20 -20 15 0 20 -7 20 -25 0 -18 5 -25 19
-25 22 0 34 -44 25 -90 -6 -26 -3 -30 14 -30 13 0 22 8 25 23 2 12 5 3 6 -20
1 -36 4 -43 21 -43 17 0 20 -7 20 -45 0 -38 3 -45 20 -45 13 0 20 -7 20 -20 0
-13 7 -20 20 -20 13 0 20 -7 20 -20 0 -13 7 -20 20 -20 13 0 20 -7 20 -20 0
-13 7 -20 19 -20 12 0 21 -8 24 -22 l4 -23 2 23 c1 15 7 22 22 22 19 0 20 -4
14 -40 -6 -38 -6 -40 19 -40 21 0 26 -5 26 -25 0 -18 5 -25 20 -25 13 0 20 -7
20 -20 0 -13 7 -20 20 -20 13 0 20 -7 20 -20 0 -13 7 -20 20 -20 13 0 20 -7
20 -20 0 -13 7 -20 20 -20 13 0 20 -7 20 -20 0 -13 7 -20 20 -20 13 0 20 -7
20 -20 0 -15 7 -20 25 -20 23 0 25 -4 25 -45 0 -38 3 -45 20 -45 18 0 20 -7
20 -60 0 -53 2 -60 20 -60 17 0 20 -7 20 -40 0 -36 3 -40 25 -40 20 0 25 -5
25 -25 0 -16 6 -25 15 -25 8 0 15 -9 15 -20 0 -13 7 -20 20 -20 13 0 20 -7 20
-20 0 -15 7 -20 25 -20 18 0 25 -5 25 -20 0 -13 7 -20 20 -20 13 0 20 -7 20
-20 0 -13 7 -20 20 -20 17 0 20 -7 20 -45 0 -41 2 -45 25 -45 23 0 25 -4 25
-40 0 -33 3 -40 20 -40 17 0 20 -7 20 -40 0 -28 4 -40 14 -40 8 0 16 -10 18
-22 2 -15 11 -24 26 -26 29 -4 31 -42 2 -42 -17 0 -20 -7 -20 -40 0 -33 3 -40
20 -40 17 0 20 -7 20 -40 0 -33 3 -40 20 -40 15 0 20 -7 20 -25 0 -18 5 -25
20 -25 19 0 20 -7 20 -100 l0 -100 25 0 c20 0 25 -5 25 -25 0 -16 6 -25 15
-25 8 0 15 -9 15 -20 0 -13 7 -20 19 -20 12 0 21 -8 24 -23 2 -12 5 -1 6 26 1
41 -2 47 -19 47 -18 0 -20 7 -20 60 0 47 3 60 15 60 8 0 15 -9 15 -20 0 -15 7
-20 25 -20 23 0 25 -4 25 -45 0 -38 3 -45 20 -45 18 0 20 -7 20 -60 0 -53 2
-60 20 -60 18 0 20 -7 20 -60 0 -57 1 -60 25 -60 20 0 25 -5 25 -25 0 -16 6
-25 15 -25 8 0 15 -9 15 -20 0 -13 7 -20 20 -20 13 0 20 -7 20 -20 0 -15 7
-20 25 -20 18 0 25 5 25 20 0 13 7 20 20 20 18 0 20 -7 20 -60 0 -53 2 -60 20
-60 18 0 20 -7 20 -85 l0 -85 26 0 27 0 -7 -64 -6 -63 25 5 c25 4 25 3 25 -62
0 -59 2 -66 20 -66 18 0 20 -7 20 -60 0 -53 2 -60 20 -60 15 0 20 -7 20 -25 0
-18 5 -25 20 -25 13 0 20 -7 20 -20 0 -13 7 -20 20 -20 13 0 20 7 20 20 0 13
-7 20 -20 20 -18 0 -20 7 -20 65 0 58 -2 65 -20 65 -18 0 -20 7 -20 60 0 53
-2 60 -20 60 -18 0 -20 7 -20 65 0 58 2 65 20 65 13 0 20 -7 20 -20 0 -13 7
-20 20 -20 18 0 20 -7 20 -65 0 -58 2 -65 20 -65 17 0 20 -7 20 -40 0 -37 2
-40 26 -40 l27 0 -6 -65 c-6 -64 -6 -65 18 -65 24 0 25 -3 25 -60 0 -53 2 -60
20 -60 18 0 20 -7 20 -65 0 -58 2 -65 20 -65 13 0 20 -7 20 -20 0 -13 7 -20
20 -20 17 0 20 -7 20 -40 0 -33 3 -40 20 -40 13 0 20 7 20 20 0 15 7 20 26 20
l27 0 -7 -64 -6 -63 25 5 c24 4 25 2 25 -42 0 -34 4 -46 15 -46 8 0 15 -9 15
-20 0 -15 7 -20 25 -20 18 0 25 -5 25 -20 0 -13 7 -20 20 -20 13 0 20 -7 20
-20 0 -13 7 -20 20 -20 17 0 20 -7 20 -45 0 -38 3 -45 19 -45 15 0 21 -10 26
-40 5 -30 11 -40 26 -40 17 0 19 -8 19 -65 0 -58 2 -65 20 -65 17 0 20 -7 20
-40 0 -33 3 -40 20 -40 13 0 20 -7 20 -20 0 -13 7 -20 20 -20 13 0 20 -7 20
-20 0 -13 7 -20 20 -20 17 0 20 -7 20 -45 0 -37 3 -45 19 -45 19 0 31 -34 31
-91 0 -19 5 -29 15 -29 8 0 15 -9 15 -20 0 -13 7 -20 20 -20 13 0 20 -7 20
-20 0 -15 7 -20 25 -20 23 0 25 -4 25 -45 0 -38 3 -45 20 -45 13 0 20 -7 20
-20 0 -13 7 -20 20 -20 18 0 20 -7 20 -60 0 -53 -2 -60 -20 -60 -13 0 -20 7
-20 20 0 13 -7 20 -20 20 -17 0 -20 7 -20 40 0 36 -2 40 -25 40 -18 0 -25 5
-25 20 0 11 -7 20 -15 20 -8 0 -15 -9 -15 -20 0 -11 6 -20 14 -20 9 0 17 -15
21 -40 5 -30 11 -40 26 -40 12 0 19 -7 19 -20 0 -13 7 -20 20 -20 17 0 20 -7
20 -45 0 -38 3 -45 20 -45 13 0 20 -7 20 -20 0 -25 37 -27 43 -2 2 9 2 0 0
-21 -8 -62 6 -117 28 -117 17 0 19 -8 19 -105 0 -98 1 -105 20 -105 13 0 20
-7 20 -20 0 -13 7 -20 20 -20 17 0 20 -7 20 -45 0 -38 3 -45 20 -45 13 0 20
-7 20 -20 0 -13 7 -20 20 -20 13 0 20 -7 20 -20 0 -15 7 -20 25 -20 23 0 25
-4 25 -40 0 -29 4 -40 15 -40 11 0 15 -12 15 -45 0 -38 3 -45 20 -45 17 0 20
-7 20 -40 0 -36 3 -40 25 -40 18 0 25 -5 25 -20 0 -13 7 -20 20 -20 18 0 20
-7 20 -65 0 -58 2 -65 20 -65 19 0 20 -7 20 -105 0 -97 2 -105 19 -105 15 0
21 -10 26 -40 4 -25 12 -40 21 -40 10 0 14 -12 14 -40 0 -33 3 -40 20 -40 13
0 20 -7 20 -20 0 -15 7 -20 25 -20 22 0 25 -4 25 -35 l0 -34 78 5 c42 2 219
14 392 24 1793 113 3218 430 4540 1010 188 83 634 304 825 410 1472 814 2733
1975 3664 3375 932 1401 1497 2959 1745 4815 98 728 149 1427 188 2560 19 540
19 24957 0 25495 -50 1451 -142 2416 -317 3340 -250 1318 -688 2491 -1338
3585 -1028 1729 -2548 3136 -4352 4029 -1285 637 -2648 999 -4365 1160 -683
65 -1429 100 -2515 121 -596 11 -23375 11 -24091 -1z m-6324 -31129 c0 -15 -7
-20 -25 -20 -18 0 -25 5 -25 20 0 15 7 20 25 20 18 0 25 -5 25 -20z m-130 -45
c0 -22 -4 -25 -40 -25 -36 0 -40 3 -40 25 0 23 4 25 40 25 36 0 40 -2 40 -25z
m-170 -45 c0 -13 -7 -20 -20 -20 -13 0 -20 7 -20 20 0 13 7 20 20 20 13 0 20
-7 20 -20z m-1040 -330 c0 -13 -7 -20 -20 -20 -13 0 -20 7 -20 20 0 13 7 20
20 20 13 0 20 -7 20 -20z m-120 -40 c0 -13 -7 -20 -20 -20 -13 0 -20 7 -20 20
0 13 7 20 20 20 13 0 20 -7 20 -20z m-130 -40 c0 -13 -7 -20 -20 -20 -13 0
-20 7 -20 20 0 13 7 20 20 20 13 0 20 -7 20 -20z m-80 -45 c0 -18 -5 -25 -20
-25 -15 0 -20 7 -20 25 0 18 5 25 20 25 15 0 20 -7 20 -25z m-130 -45 c0 -13
-7 -20 -20 -20 -13 0 -20 7 -20 20 0 13 7 20 20 20 13 0 20 -7 20 -20z m-120
-40 c0 -13 -7 -20 -20 -20 -13 0 -20 7 -20 20 0 13 7 20 20 20 13 0 20 -7 20
-20z m-80 -40 c0 -15 -7 -20 -25 -20 -18 0 -25 5 -25 20 0 15 7 20 25 20 18 0
25 -5 25 -20z m-210 -80 c0 -17 -7 -20 -45 -20 -38 0 -45 3 -45 20 0 17 7 20
45 20 38 0 45 -3 45 -20z m-1260 -375 c0 -8 -7 -15 -15 -15 -8 0 -15 7 -15 15
0 8 7 15 15 15 8 0 15 -7 15 -15z m-40 -45 c0 -13 -7 -20 -20 -20 -13 0 -20
-7 -20 -20 0 -17 -7 -20 -40 -20 -33 0 -40 -3 -40 -20 0 -15 -7 -20 -25 -20
-18 0 -25 5 -25 20 0 15 7 20 25 20 18 0 25 5 25 20 0 13 7 20 20 20 13 0 20
7 20 20 0 17 7 20 40 20 33 0 40 -3 40 -20z m210 -80 c0 -13 -7 -20 -20 -20
-13 0 -20 7 -20 20 0 13 7 20 20 20 13 0 20 -7 20 -20z m-410 -45 c0 -21 -4
-25 -27 -24 -24 2 -25 2 -5 6 14 3 22 12 22 24 0 10 2 19 5 19 3 0 5 -11 5
-25z m-40 -125 c0 -15 -7 -20 -25 -20 -18 0 -25 5 -25 20 0 15 7 20 25 20 18
0 25 -5 25 -20z m-90 -40 c0 -13 -7 -20 -20 -20 -13 0 -20 7 -20 20 0 13 7 20
20 20 13 0 20 -7 20 -20z m-80 -40 c0 -13 -7 -20 -20 -20 -13 0 -20 7 -20 20
0 13 7 20 20 20 13 0 20 -7 20 -20z m-80 -45 c0 -20 -5 -25 -25 -25 -20 0 -25
5 -25 25 0 20 5 25 25 25 20 0 25 -5 25 -25z m-90 -45 c0 -13 -7 -20 -20 -20
-13 0 -20 7 -20 20 0 13 7 20 20 20 13 0 20 -7 20 -20z m-80 -40 c0 -13 -7
-20 -20 -20 -13 0 -20 7 -20 20 0 13 7 20 20 20 13 0 20 -7 20 -20z m-580
-290 c0 -15 -7 -20 -25 -20 -18 0 -25 5 -25 20 0 15 7 20 25 20 18 0 25 -5 25
-20z m-90 -40 c0 -13 -7 -20 -20 -20 -13 0 -20 7 -20 20 0 13 7 20 20 20 13 0
20 -7 20 -20z m-80 -40 c0 -13 -7 -20 -20 -20 -13 0 -20 7 -20 20 0 13 7 20
20 20 13 0 20 -7 20 -20z m-210 -130 c0 -13 -7 -20 -20 -20 -13 0 -20 7 -20
20 0 13 7 20 20 20 13 0 20 -7 20 -20z m-80 -40 c0 -13 -7 -20 -20 -20 -13 0
-20 7 -20 20 0 13 7 20 20 20 13 0 20 -7 20 -20z m-90 -40 c0 -13 -7 -20 -20
-20 -13 0 -20 7 -20 20 0 13 7 20 20 20 13 0 20 -7 20 -20z m-120 -85 c0 -18
-5 -25 -20 -25 -15 0 -20 7 -20 25 0 18 5 25 20 25 15 0 20 -7 20 -25z m-80
-45 c0 -15 -7 -20 -25 -20 -18 0 -25 5 -25 20 0 15 7 20 25 20 18 0 25 -5 25
-20z m-90 -40 c0 -13 -7 -20 -20 -20 -13 0 -20 7 -20 20 0 13 7 20 20 20 13 0
20 -7 20 -20z m-120 -80 c0 -13 -7 -20 -20 -20 -13 0 -20 7 -20 20 0 13 7 20
20 20 13 0 20 -7 20 -20z m-90 -40 c0 -13 -7 -20 -20 -20 -13 0 -20 7 -20 20
0 13 7 20 20 20 13 0 20 -7 20 -20z m-120 -90 c0 -13 -7 -20 -20 -20 -13 0
-20 7 -20 20 0 13 7 20 20 20 13 0 20 -7 20 -20z m-80 -40 c0 -15 -7 -20 -25
-20 -18 0 -25 5 -25 20 0 15 7 20 25 20 18 0 25 -5 25 -20z m-130 -80 c0 -13
-7 -20 -20 -20 -13 0 -20 7 -20 20 0 13 7 20 20 20 13 0 20 -7 20 -20z m-80
-40 c0 -13 -7 -20 -20 -20 -15 0 -20 -7 -20 -25 0 -20 -5 -25 -25 -25 -20 0
-25 5 -25 25 0 20 5 25 25 25 18 0 25 5 25 20 0 13 7 20 20 20 13 0 20 -7 20
-20z m-130 -90 c0 -13 -7 -20 -20 -20 -13 0 -20 7 -20 20 0 13 7 20 20 20 13
0 20 -7 20 -20z m-120 -80 c0 -13 -7 -20 -20 -20 -13 0 -20 7 -20 20 0 13 7
20 20 20 13 0 20 -7 20 -20z m-90 -40 c0 -13 -7 -20 -20 -20 -13 0 -20 -7 -20
-20 0 -13 -7 -20 -20 -20 -13 0 -20 7 -20 20 0 13 7 20 20 20 13 0 20 7 20 20
0 13 7 20 20 20 13 0 20 -7 20 -20z m35050 -9790 c0 -15 -7 -20 -25 -20 -18 0
-25 5 -25 20 0 15 7 20 25 20 18 0 25 -5 25 -20z m37 -102 c-3 -7 -5 -2 -5 12
0 14 2 19 5 13 2 -7 2 -19 0 -25z m873 -1238 c0 -13 7 -20 20 -20 13 0 20 -7
20 -20 0 -13 7 -20 20 -20 13 0 20 -7 20 -20 0 -13 -7 -20 -20 -20 -13 0 -20
7 -20 20 0 13 -7 20 -20 20 -13 0 -20 7 -20 20 0 13 -7 20 -20 20 -13 0 -20 7
-20 20 0 13 7 20 20 20 13 0 20 -7 20 -20z m120 -290 c0 -11 -7 -20 -15 -20
-8 0 -15 9 -15 20 0 11 7 20 15 20 8 0 15 -9 15 -20z m257 -170 c1 -21 1 -21
-3 -3 -3 12 -13 24 -22 27 -12 3 -11 4 3 3 14 -2 21 -10 22 -27z m83 -225 c0
-38 -3 -45 -20 -45 -17 0 -20 7 -20 45 0 38 3 45 20 45 17 0 20 -7 20 -45z
m200 -395 c0 -11 -7 -20 -15 -20 -8 0 -15 9 -15 20 0 11 7 20 15 20 8 0 15 -9
15 -20z m300 -330 c0 -13 -7 -20 -20 -20 -13 0 -20 7 -20 20 0 13 7 20 20 20
13 0 20 -7 20 -20z m40 -150 c0 -33 -3 -40 -20 -40 -17 0 -20 7 -20 40 0 33 3
40 20 40 17 0 20 -7 20 -40z m40 -150 c0 -13 -7 -20 -20 -20 -13 0 -20 7 -20
20 0 13 7 20 20 20 13 0 20 -7 20 -20z m920 -1580 c0 -13 -7 -20 -20 -20 -13
0 -20 7 -20 20 0 13 7 20 20 20 13 0 20 -7 20 -20z m40 -145 c0 -38 -3 -45
-20 -45 -17 0 -20 7 -20 45 0 38 3 45 20 45 17 0 20 -7 20 -45z m40 -230 c0
-58 -2 -65 -20 -65 -18 0 -20 7 -20 65 0 58 2 65 20 65 18 0 20 -7 20 -65z
m420 -875 c0 -53 -2 -60 -20 -60 -18 0 -20 7 -20 60 0 53 2 60 20 60 18 0 20
-7 20 -60z"/>
<path d="M20970 40019 c-1262 -12 -2355 -44 -3415 -99 -1331 -69 -2318 -244
-3194 -567 -641 -236 -1130 -492 -1586 -833 -376 -280 -779 -666 -1099 -1050
-435 -523 -741 -1066 -1014 -1805 -338 -914 -510 -1905 -577 -3320 -65 -1394
-82 -2038 -95 -3760 -23 -3045 -2 -9126 32 -9161 3 -2 19 -1 36 2 29 6 32 10
32 45 0 32 3 39 20 39 11 0 20 7 20 15 0 8 -9 15 -20 15 -15 0 -20 7 -20 25
l0 25 105 0 c98 0 105 -1 105 -20 0 -13 -7 -20 -20 -20 -17 0 -20 -7 -20 -45
l0 -45 165 0 c158 0 165 1 165 20 0 19 7 20 230 20 223 0 230 1 230 20 0 20 7
20 270 20 l270 0 0 25 0 25 440 0 c433 0 440 0 440 20 0 13 7 20 20 20 13 0
20 7 20 20 0 13 7 20 20 20 13 0 20 -7 20 -20 0 -19 7 -20 205 -20 l205 0 0
45 c0 41 2 45 25 45 24 0 25 3 25 60 0 53 2 60 20 60 17 0 20 7 20 40 l0 40
85 0 c78 0 85 -2 85 -20 0 -19 7 -20 140 -20 133 0 140 -1 140 -20 0 -15 7
-20 25 -20 18 0 25 5 25 20 0 19 7 20 225 20 218 0 225 -1 225 -20 0 -17 -7
-20 -40 -20 -33 0 -40 -3 -40 -20 0 -18 -7 -20 -60 -20 -57 0 -60 -1 -60 -25
0 -18 5 -25 20 -25 13 0 20 -7 20 -20 0 -20 7 -20 375 -20 368 0 375 0 375
-20 0 -19 7 -20 250 -20 243 0 250 -1 250 -20 0 -19 7 -20 210 -20 203 0 210
-1 210 -20 0 -19 7 -20 165 -20 l165 0 0 -25 0 -25 170 0 c163 0 170 -1 170
-20 0 -19 7 -20 125 -20 118 0 125 -1 125 -20 0 -19 7 -20 145 -20 138 0 145
-1 145 -20 0 -19 -7 -20 -130 -20 -123 0 -130 -1 -130 -20 0 -18 -7 -20 -80
-20 -73 0 -80 -2 -80 -20 0 -19 7 -20 145 -20 l145 0 0 -25 0 -25 125 0 c118
0 125 -1 125 -20 0 -19 7 -20 105 -20 98 0 105 -1 105 -20 0 -19 7 -20 125
-20 118 0 125 -1 125 -20 0 -19 7 -20 105 -20 98 0 105 -1 105 -20 0 -18 7
-20 65 -20 l66 0 -48 60 c-26 33 -56 60 -65 60 -12 0 -18 8 -18 23 0 14 -27
60 -63 108 -325 431 -615 906 -876 1429 -166 333 -267 564 -387 886 -343 919
-531 1828 -585 2834 -15 272 -6 946 15 1200 78 925 256 1732 566 2565 402
1081 994 2065 1778 2955 175 199 603 627 802 802 1469 1294 3234 2083 5159
2308 402 47 555 55 1086 55 533 0 676 -8 1095 -56 1808 -207 3530 -947 4936
-2120 316 -263 779 -714 1033 -1004 744 -850 1301 -1761 1706 -2790 658 -1669
821 -3508 470 -5283 -285 -1434 -913 -2805 -1814 -3957 -427 -545 -947 -1075
-1491 -1518 -936 -763 -2040 -1349 -3205 -1703 -381 -115 -902 -233 -1275
-289 -96 -14 -190 -28 -207 -31 -20 -3 -33 -11 -33 -19 0 -17 -37 -20 -42 -4
-3 8 -30 9 -89 4 -84 -7 -86 -8 -81 -31 3 -15 11 -24 23 -24 12 0 19 -7 19
-20 0 -17 7 -20 40 -20 33 0 40 -3 40 -20 0 -17 7 -20 40 -20 33 0 40 -3 40
-20 0 -17 7 -20 45 -20 41 0 45 -2 45 -25 0 -22 4 -25 40 -25 33 0 40 -3 40
-20 0 -17 7 -20 40 -20 33 0 40 -3 40 -20 0 -17 7 -20 45 -20 38 0 45 -3 45
-20 0 -17 7 -20 40 -20 33 0 40 3 40 20 0 15 7 20 25 20 20 0 25 -5 25 -25 0
-20 -5 -25 -25 -25 -16 0 -25 -6 -25 -15 0 -11 11 -15 40 -15 33 0 40 -3 40
-20 0 -15 7 -20 25 -20 16 0 25 6 25 15 0 8 9 15 20 15 13 0 20 -7 20 -20 0
-13 7 -20 20 -20 13 0 20 -7 20 -20 0 -17 7 -20 46 -20 l46 0 -5 -37 c-2 -21
-2 -30 0 -20 6 24 43 22 43 -3 0 -11 6 -20 14 -20 8 0 16 -10 18 -22 2 -19 10
-24 46 -26 34 -3 42 -7 42 -23 0 -12 7 -19 20 -19 13 0 20 -7 20 -20 0 -15 7
-20 25 -20 18 0 25 -5 25 -20 0 -17 7 -20 40 -20 33 0 40 -3 40 -20 0 -13 7
-20 20 -20 13 0 20 -7 20 -20 0 -13 7 -20 20 -20 15 0 20 -7 20 -25 0 -23 4
-25 45 -25 38 0 45 -3 45 -20 0 -13 7 -20 20 -20 13 0 20 -7 20 -20 0 -13 7
-20 20 -20 13 0 20 -7 20 -20 0 -13 7 -20 20 -20 13 0 20 -7 20 -20 0 -17 7
-20 40 -20 33 0 40 -3 40 -20 0 -15 7 -20 25 -20 20 0 25 -5 25 -25 0 -18 5
-25 20 -25 13 0 20 -7 20 -20 0 -13 7 -20 20 -20 13 0 20 -7 20 -20 0 -17 7
-20 40 -20 33 0 40 -3 40 -20 0 -13 7 -20 20 -20 13 0 20 -7 20 -20 0 -15 7
-20 25 -20 18 0 25 -5 25 -20 0 -13 7 -20 20 -20 15 0 20 -7 20 -25 0 -22 4
-25 40 -25 33 0 40 -3 40 -20 0 -13 7 -20 20 -20 13 0 20 -7 20 -20 0 -13 7
-20 20 -20 13 0 20 -7 20 -20 0 -15 7 -20 25 -20 18 0 25 -5 25 -20 0 -13 7
-20 20 -20 13 0 20 -7 20 -20 0 -13 7 -20 20 -20 15 0 20 -7 20 -25 0 -22 4
-25 40 -25 33 0 40 -3 40 -20 0 -13 7 -20 20 -20 13 0 20 -7 20 -20 0 -15 7
-20 25 -20 18 0 25 -5 25 -20 0 -13 7 -20 20 -20 13 0 20 -7 20 -20 0 -13 7
-20 20 -20 13 0 20 -7 20 -20 0 -13 7 -20 20 -20 15 0 20 -7 20 -25 0 -22 4
-25 40 -25 33 0 40 -3 40 -20 0 -15 7 -20 25 -20 18 0 25 -5 25 -20 0 -13 7
-20 20 -20 13 0 20 -7 20 -20 0 -13 7 -20 20 -20 13 0 20 -7 20 -20 0 -13 7
-20 20 -20 13 0 20 -7 20 -20 0 -13 7 -20 20 -20 15 0 20 -7 20 -25 0 -18 5
-25 20 -25 13 0 20 -7 20 -20 0 -15 7 -20 25 -20 18 0 25 -5 25 -20 0 -13 7
-20 20 -20 13 0 20 -7 20 -20 0 -17 7 -20 40 -20 33 0 40 -3 40 -20 0 -13 7
-20 20 -20 13 0 20 -7 20 -20 0 -13 7 -20 20 -20 15 0 20 -7 20 -25 0 -20 5
-25 25 -25 18 0 25 -5 25 -20 0 -13 7 -20 20 -20 13 0 20 -7 20 -20 0 -13 7
-20 20 -20 13 0 20 -7 20 -20 0 -13 7 -20 20 -20 13 0 20 -7 20 -20 0 -13 7
-20 20 -20 13 0 20 -7 20 -20 0 -13 7 -20 20 -20 15 0 20 -7 20 -25 0 -20 5
-25 25 -25 18 0 25 -5 25 -20 0 -13 7 -20 20 -20 13 0 20 -7 20 -20 0 -13 7
-20 20 -20 13 0 20 -7 20 -20 0 -13 7 -20 20 -20 13 0 20 -7 20 -20 0 -13 7
-20 20 -20 13 0 20 -7 20 -20 0 -13 7 -20 20 -20 15 0 20 -7 20 -25 0 -20 5
-25 25 -25 18 0 25 -5 25 -20 0 -13 7 -20 20 -20 13 0 20 -7 20 -20 0 -13 7
-20 20 -20 13 0 20 -7 20 -20 0 -13 7 -20 20 -20 13 0 20 -7 20 -20 0 -13 7
-20 20 -20 13 0 20 -7 20 -20 0 -13 7 -20 20 -20 15 0 20 -7 20 -25 0 -20 5
-25 25 -25 18 0 25 -5 25 -20 0 -13 7 -20 20 -20 13 0 20 -7 20 -20 0 -13 7
-20 20 -20 13 0 20 -7 20 -20 0 -13 7 -20 20 -20 13 0 20 -7 20 -20 0 -13 7
-20 20 -20 13 0 20 -7 20 -20 0 -13 7 -20 20 -20 17 0 20 -7 20 -45 0 -41 2
-45 25 -45 18 0 25 -5 25 -20 0 -13 7 -20 20 -20 13 0 20 -7 20 -20 0 -13 7
-20 20 -20 13 0 20 -7 20 -20 0 -13 7 -20 20 -20 13 0 20 -7 20 -20 0 -13 7
-20 20 -20 15 0 20 -7 20 -25 0 -18 5 -25 20 -25 13 0 20 -7 20 -20 0 -15 7
-20 25 -20 18 0 25 -5 25 -20 0 -13 7 -20 20 -20 13 0 20 -7 20 -20 0 -13 7
-20 20 -20 17 0 20 -7 20 -40 0 -33 3 -40 20 -40 15 0 20 -7 20 -25 0 -18 5
-25 20 -25 13 0 20 -7 20 -20 0 -13 7 -20 20 -20 13 0 20 -7 20 -20 0 -15 7
-20 25 -20 18 0 25 -5 25 -20 0 -13 7 -20 20 -20 13 0 20 -7 20 -20 0 -13 7
-20 20 -20 17 0 20 -7 20 -45 0 -38 3 -45 20 -45 13 0 20 -7 20 -20 0 -13 7
-20 20 -20 13 0 20 -7 20 -20 0 -13 7 -20 20 -20 13 0 20 -7 20 -20 0 -15 7
-20 25 -20 18 0 25 -5 25 -20 0 -13 7 -20 20 -20 17 0 20 -7 20 -45 0 -38 3
-45 20 -45 13 0 20 -7 20 -20 0 -13 7 -20 20 -20 13 0 20 -7 20 -20 0 -13 7
-20 20 -20 13 0 20 -7 20 -20 0 -13 7 -20 20 -20 13 0 20 -7 20 -20 0 -15 7
-20 25 -20 23 0 25 -4 25 -45 0 -38 3 -45 20 -45 13 0 20 -7 20 -20 0 -13 7
-20 20 -20 13 0 20 -7 20 -20 0 -13 7 -20 20 -20 13 0 20 -7 20 -20 0 -13 7
-20 20 -20 17 0 20 -7 20 -40 0 -33 3 -40 20 -40 15 0 20 -7 20 -25 0 -20 5
-25 26 -25 25 0 26 -2 21 -37 -3 -21 -3 -30 -1 -20 3 9 14 17 25 17 17 0 18
-5 12 -60 -5 -56 -4 -60 15 -60 13 0 22 -8 25 -22 l4 -23 2 23 c1 29 41 32 41
2 0 -13 7 -20 20 -20 15 0 20 -7 20 -25 0 -18 -5 -25 -20 -25 -11 0 -20 -7
-20 -15 0 -8 9 -15 20 -15 11 0 20 7 20 15 0 8 9 15 20 15 13 0 20 -7 20 -20
0 -13 -7 -20 -20 -20 -17 0 -20 -7 -20 -40 0 -33 3 -40 20 -40 17 0 20 -7 20
-40 0 -33 3 -40 20 -40 17 0 20 -7 20 -40 0 -33 3 -40 20 -40 17 0 20 -7 20
-45 0 -38 3 -45 19 -45 15 0 21 -10 26 -40 5 -30 11 -40 26 -40 10 0 19 -7 19
-15 0 -12 14 -15 65 -15 51 0 65 3 65 15 0 8 9 15 20 15 11 0 20 -4 20 -10 0
-14 81 -13 440 5 1325 66 2308 235 3176 546 702 251 1249 540 1725 911 370
288 812 726 1124 1114 637 790 1104 1939 1321 3249 96 581 144 1102 184 2010
79 1786 90 2643 90 7085 0 3732 -10 4961 -50 6100 -15 418 -58 1415 -70 1605
-78 1234 -267 2204 -598 3065 -327 849 -710 1455 -1312 2074 -600 617 -1176
1018 -1921 1339 -1047 452 -2121 665 -3729 742 -1244 59 -1996 80 -3435 95
-1019 11 -6811 10 -7945 -1z m14205 -3058 c313 -60 579 -165 825 -328 147 -98
237 -173 371 -309 333 -342 531 -743 605 -1224 25 -158 25 -462 0 -620 -74
-481 -272 -882 -605 -1224 -186 -190 -366 -323 -591 -436 -312 -156 -629 -231
-985 -231 -257 -1 -450 30 -695 111 -564 185 -1021 585 -1285 1125 -441 899
-218 1984 539 2632 333 286 733 464 1171 522 39 5 176 8 305 7 188 -3 257 -8
345 -25z m-23125 -17101 c0 -17 -7 -20 -45 -20 -38 0 -45 -3 -45 -20 0 -17 -7
-20 -40 -20 -33 0 -40 -3 -40 -20 0 -17 -7 -20 -40 -20 -32 0 -40 -4 -40 -19
0 -15 -11 -19 -67 -24 -38 -4 -85 -7 -105 -7 -31 0 -38 -4 -38 -20 0 -19 -7
-20 -125 -20 -118 0 -125 1 -125 20 0 18 7 20 84 20 45 0 111 3 145 6 50 6 61
10 61 25 0 15 8 19 40 19 33 0 40 3 40 20 0 17 7 20 45 20 38 0 45 3 45 20 0
17 7 20 40 20 33 0 40 3 40 20 0 18 7 20 85 20 78 0 85 -2 85 -20z m950 0 c0
-13 -7 -20 -20 -20 -13 0 -20 7 -20 20 0 13 7 20 20 20 13 0 20 -7 20 -20z
m-1580 -40 c0 -13 7 -20 20 -20 13 0 20 7 20 20 0 17 7 20 45 20 38 0 45 -3
45 -20 0 -17 -7 -20 -45 -20 -38 0 -45 -3 -45 -20 0 -13 -7 -20 -20 -20 -13 0
-20 7 -20 20 0 13 -7 20 -20 20 -17 0 -20 -7 -20 -40 l0 -40 -40 0 c-36 0 -40
-2 -40 -25 0 -23 -4 -25 -45 -25 -38 0 -45 -3 -45 -20 0 -13 -7 -20 -20 -20
-17 0 -20 7 -20 45 0 38 3 45 20 45 17 0 20 7 20 40 0 33 3 40 20 40 13 0 20
7 20 20 0 18 7 20 85 20 78 0 85 -2 85 -20z m1500 0 c0 -13 -7 -20 -20 -20
-13 0 -20 7 -20 20 0 13 7 20 20 20 13 0 20 -7 20 -20z m-120 -40 c0 -15 -7
-20 -25 -20 -18 0 -25 5 -25 20 0 15 7 20 25 20 18 0 25 -5 25 -20z m-90 -40
c0 -13 -7 -20 -20 -20 -13 0 -20 7 -20 20 0 13 7 20 20 20 13 0 20 -7 20 -20z
m-120 -5 c0 -8 9 -15 20 -15 15 0 20 -7 20 -25 0 -18 -5 -25 -20 -25 -13 0
-20 7 -20 20 0 20 -7 20 -270 20 -263 0 -270 0 -270 20 0 20 7 20 270 20 233
0 270 -2 270 -15z m-1580 -85 c0 -18 -7 -20 -85 -20 -78 0 -85 2 -85 20 0 18
7 20 85 20 78 0 85 -2 85 -20z m-420 -40 c0 -18 -7 -20 -80 -20 -73 0 -80 2
-80 20 0 18 7 20 80 20 73 0 80 -2 80 -20z m6380 -210 c0 -18 -7 -20 -65 -20
-58 0 -65 2 -65 20 0 18 7 20 65 20 58 0 65 -2 65 -20z m210 -40 c0 -17 -7
-20 -45 -20 -38 0 -45 3 -45 20 0 17 7 20 45 20 38 0 45 -3 45 -20z m200 -45
c0 -22 -4 -25 -40 -25 -36 0 -40 3 -40 25 0 23 4 25 40 25 36 0 40 -2 40 -25z
m8880 -3705 c0 -13 -7 -20 -20 -20 -13 0 -20 7 -20 20 0 13 7 20 20 20 13 0
20 -7 20 -20z m120 -90 c0 -13 -7 -20 -20 -20 -13 0 -20 7 -20 20 0 13 7 20
20 20 13 0 20 -7 20 -20z m130 -80 c0 -13 7 -20 20 -20 13 0 20 -7 20 -20 0
-13 -7 -20 -20 -20 -13 0 -20 7 -20 20 0 13 -7 20 -20 20 -13 0 -20 7 -20 20
0 13 7 20 20 20 13 0 20 -7 20 -20z m120 -80 c0 -13 -7 -20 -20 -20 -13 0 -20
7 -20 20 0 13 7 20 20 20 13 0 20 -7 20 -20z m5050 -4920 c0 -13 7 -20 20 -20
13 0 20 -7 20 -20 0 -13 7 -20 20 -20 13 0 20 -7 20 -20 0 -13 -7 -20 -20 -20
-13 0 -20 7 -20 20 0 13 -7 20 -20 20 -13 0 -20 7 -20 20 0 15 -7 20 -25 20
-18 0 -25 5 -25 20 0 15 7 20 25 20 18 0 25 -5 25 -20z m120 -170 c0 -13 7
-20 20 -20 13 0 20 -7 20 -20 0 -13 7 -20 20 -20 13 0 20 -7 20 -20 0 -13 -7
-20 -20 -20 -13 0 -20 7 -20 20 0 13 -7 20 -20 20 -13 0 -20 7 -20 20 0 13 -7
20 -20 20 -13 0 -20 7 -20 20 0 13 7 20 20 20 13 0 20 -7 20 -20z m130 -160
c0 -15 -7 -20 -25 -20 -18 0 -25 5 -25 20 0 15 7 20 25 20 18 0 25 -5 25 -20z"/>
<path d="M24640 31099 c-1492 -89 -2889 -717 -3950 -1779 -1323 -1322 -1961
-3152 -1749 -5014 131 -1157 598 -2261 1338 -3166 590 -721 1364 -1316 2211
-1700 535 -242 1090 -402 1680 -484 313 -44 433 -51 855 -50 416 0 534 8 860
55 993 143 1959 542 2761 1139 449 334 924 809 1256 1254 631 845 1032 1838
1162 2876 31 250 37 341 43 660 8 438 -11 712 -78 1120 -260 1605 -1185 3067
-2534 4006 -1126 784 -2481 1165 -3855 1083z"/>
<path d="M13380 19820 c0 -13 7 -20 20 -20 13 0 20 7 20 20 0 13 -7 20 -20 20
-13 0 -20 -7 -20 -20z"/>
<path d="M13300 19780 c0 -13 7 -20 20 -20 13 0 20 7 20 20 0 13 -7 20 -20 20
-13 0 -20 -7 -20 -20z"/>
<path d="M6090 18571 c0 -12 -8 -21 -22 -24 -13 -2 -4 -5 20 -6 39 -1 42 1 42
24 0 18 -5 25 -20 25 -13 0 -20 -7 -20 -19z"/>
<path d="M4172 17860 c0 -14 2 -19 5 -12 2 6 2 18 0 25 -3 6 -5 1 -5 -13z"/>
<path d="M34920 6270 c0 -13 7 -20 20 -20 13 0 20 7 20 20 0 13 -7 20 -20 20
-13 0 -20 -7 -20 -20z"/>
<path d="M36470 3860 c0 -11 7 -20 15 -20 8 0 15 9 15 20 0 11 -7 20 -15 20
-8 0 -15 -9 -15 -20z"/>
<path d="M36880 3355 c0 -18 5 -25 20 -25 15 0 20 7 20 25 0 18 -5 25 -20 25
-15 0 -20 -7 -20 -25z"/>
<path d="M37510 2065 c0 -8 9 -15 20 -15 11 0 20 7 20 15 0 8 -9 15 -20 15
-11 0 -20 -7 -20 -15z"/>
<path d="M38353 53 c9 -2 25 -2 35 0 9 3 1 5 -18 5 -19 0 -27 -2 -17 -5z"/>
<path d="M38098 43 c12 -2 30 -2 40 0 9 3 -1 5 -23 4 -22 0 -30 -2 -17 -4z"/>
<path d="M37813 33 c9 -2 25 -2 35 0 9 3 1 5 -18 5 -19 0 -27 -2 -17 -5z"/>
</g>
</svg>
