<?xml version="1.0" standalone="no"?>
<!DOCTYPE svg PUBLIC "-//W3C//DTD SVG 20010904//EN"
 "http://www.w3.org/TR/2001/REC-SVG-20010904/DTD/svg10.dtd">
<svg version="1.0" xmlns="http://www.w3.org/2000/svg"
 width="1000.000000pt" height="432.000000pt" viewBox="0 0 1000.000000 432.000000"
 preserveAspectRatio="xMidYMid meet">

<g transform="translate(0.000000,432.000000) scale(0.100000,-0.100000)"
fill="#000000" stroke="none">
<path d="M1205 2669 c-65 -18 -78 -46 -158 -324 -41 -143 -73 -262 -70 -264 2
-3 45 36 96 86 157 154 354 319 529 445 43 30 74 58 71 62 -10 9 -434 5 -468
-5z"/>
<path d="M1738 2674 c-3 -5 -58 -193 -122 -419 -135 -475 -130 -465 -236 -465
-34 0 -60 4 -60 10 0 6 30 114 66 240 36 127 64 235 62 241 -10 30 -618 -595
-618 -635 0 -4 172 -6 383 -4 361 4 386 5 447 26 120 40 190 114 225 236 38
130 -23 254 -139 282 -28 7 -26 8 35 28 87 28 132 66 169 139 24 48 30 73 30
124 0 89 -29 137 -106 176 -37 19 -129 33 -136 21z"/>
<path d="M5881 2544 c-139 -37 -226 -147 -225 -284 1 -115 43 -161 208 -224
147 -57 171 -94 126 -194 -32 -70 -122 -95 -176 -49 -23 20 -27 32 -27 70 1
25 4 55 8 66 6 20 3 21 -109 21 l-115 0 -16 -52 c-28 -97 -13 -166 46 -210 64
-47 94 -53 259 -53 148 0 157 1 210 27 30 15 62 33 70 40 58 49 110 166 110
247 -1 106 -54 161 -221 227 -140 56 -170 95 -135 179 18 42 61 65 120 65 60
0 90 -35 81 -92 l-7 -39 108 3 108 3 8 45 c17 99 -34 174 -139 203 -73 21
-217 21 -292 1z"/>
<path d="M4417 2539 c-115 -27 -190 -102 -247 -249 -44 -111 -101 -361 -102
-445 -2 -159 54 -202 277 -212 106 -5 286 7 350 23 20 5 28 28 74 202 29 108
54 205 57 215 5 16 -3 17 -117 15 l-123 -3 -40 -147 -39 -148 -69 0 c-95 0
-128 18 -128 72 0 44 80 348 112 425 39 95 71 123 142 123 74 0 102 -34 86
-104 l-8 -36 118 0 119 0 6 54 c10 76 -11 151 -48 178 -51 37 -112 48 -251 47
-72 -1 -148 -5 -169 -10z"/>
<path d="M7277 2540 c-135 -34 -217 -134 -285 -350 -82 -257 -85 -429 -11
-499 52 -49 83 -56 259 -56 l165 0 67 33 c98 48 153 124 207 281 78 228 98
418 52 498 -16 27 -41 51 -75 70 -49 27 -57 28 -196 30 -80 1 -162 -2 -183 -7z
m219 -151 c24 -27 23 -103 -5 -219 -49 -209 -105 -334 -164 -370 -44 -27 -111
-26 -138 1 -19 19 -21 29 -16 88 7 80 56 275 90 360 49 120 90 160 168 161 34
0 51 -5 65 -21z"/>
<path d="M2052 2108 c-62 -238 -112 -441 -112 -450 0 -16 12 -18 118 -18 l117
0 89 348 c49 191 94 362 99 381 l9 33 75 -4 c64 -3 78 -7 94 -27 34 -42 21
-121 -29 -174 -38 -40 -74 -57 -122 -57 -22 0 -40 -4 -40 -10 0 -17 81 -404
91 -438 6 -17 19 -37 29 -42 19 -10 240 -14 240 -5 0 18 -91 388 -99 402 -8
14 0 23 47 49 69 37 116 96 138 171 32 108 -2 187 -101 238 l-59 30 -236 3
-236 4 -112 -434z"/>
<path d="M2892 2108 c-62 -238 -112 -441 -112 -450 0 -16 13 -18 125 -18 69 0
125 3 125 6 0 4 50 197 110 431 61 233 110 433 110 444 0 18 -8 19 -123 19
l-124 0 -111 -432z"/>
<path d="M3302 2099 c-74 -289 -110 -445 -104 -451 6 -6 101 -8 254 -5 285 5
331 14 407 83 72 65 123 186 176 419 42 185 28 293 -43 343 -58 42 -130 52
-362 52 l-215 0 -113 -441z m500 271 c26 -32 20 -85 -27 -270 -42 -161 -86
-257 -132 -283 -32 -18 -173 -36 -173 -22 0 4 35 142 77 307 l77 300 79 -4
c70 -3 81 -6 99 -28z"/>
<path d="M5124 2521 c-73 -33 -92 -80 -189 -457 -75 -291 -80 -337 -36 -386
l29 -33 216 -3 c259 -4 271 0 311 83 14 30 25 59 25 64 0 7 -60 11 -180 11
l-180 0 1 23 c0 12 13 67 27 122 l27 100 162 3 162 2 11 38 c5 21 13 52 16 70
l7 32 -161 0 -161 0 24 87 c33 123 33 123 215 123 l148 0 16 65 c9 35 16 67
16 70 0 3 -105 5 -232 5 -206 0 -238 -3 -274 -19z"/>
<path d="M6380 2483 c-7 -32 -15 -64 -17 -70 -4 -10 22 -13 111 -13 64 0 116
-3 116 -6 0 -3 -11 -20 -24 -37 -13 -18 -33 -63 -44 -102 -35 -120 -152 -581
-152 -598 0 -15 15 -17 125 -17 l124 0 11 38 c6 20 51 190 99 377 l88 340 95
5 c116 6 130 16 168 115 l10 25 -349 0 -348 0 -13 -57z"/>
<path d="M7946 2523 c-27 -85 -224 -868 -220 -875 4 -7 233 -12 234 -5 1 1 45
171 98 377 l98 375 68 3 c87 4 116 -12 116 -65 0 -19 -36 -175 -80 -344 -44
-170 -80 -318 -80 -329 0 -19 6 -20 118 -20 l117 0 84 327 c46 180 86 347 89
370 6 57 -21 126 -59 154 -57 40 -120 49 -356 49 -202 0 -222 -2 -227 -17z"/>
<path d="M8844 2526 c-48 -21 -81 -64 -109 -141 -41 -117 -147 -536 -152 -606
-5 -63 -4 -68 25 -100 l30 -34 211 -3 c252 -4 269 1 307 82 13 28 24 57 24 64
0 9 -42 12 -175 12 -160 0 -175 1 -174 18 0 9 13 64 28 122 l28 105 158 5 159
5 13 50 c23 91 33 85 -141 85 l-154 0 19 73 c37 136 40 137 223 137 l133 0 16
60 c10 33 17 64 17 70 0 16 -447 12 -486 -4z"/>
</g>
</svg>
